<?xml version="1.0" encoding="UTF-8"?>
<svg version="1.1" xmlns="http://www.w3.org/2000/svg" width="768" height="768">
<path d="M0 0 C1.19537384 0.00215515 2.39074768 0.0043103 3.62234497 0.00653076 C20.74474004 0.05609902 37.53088726 0.36101105 54.4375 3.3125 C55.65228027 3.51649414 56.86706055 3.72048828 58.11865234 3.93066406 C97.25538333 10.62145271 134.28225472 22.80973932 169.4375 41.3125 C170.18499512 41.69954102 170.93249023 42.08658203 171.70263672 42.48535156 C190.4785138 52.24773232 207.94818832 64.06134005 224.4375 77.3125 C225.36304688 78.04597656 226.28859375 78.77945313 227.2421875 79.53515625 C233.22016177 84.33616391 238.90364429 89.39615 244.515625 94.61328125 C247.22628029 97.11737591 249.9802361 99.56176845 252.75 102 C256.39733529 105.26861836 259.64705154 108.68394344 262.80078125 112.42578125 C264.39365725 114.2619605 266.06262156 115.93919033 267.8125 117.625 C271.90765454 121.67495416 275.49357707 126.08481631 279.06982422 130.59423828 C280.02960405 131.80004522 280.99530343 133.00115282 281.96533203 134.19873047 C296.36702776 151.98652636 308.82252842 171.03747023 319.4375 191.3125 C319.77797363 191.95638672 320.11844727 192.60027344 320.46923828 193.26367188 C322.90441285 197.89465105 325.20861877 202.57896772 327.4375 207.3125 C328.00936035 208.52655518 328.00936035 208.52655518 328.59277344 209.76513672 C341.82650406 238.22138987 350.73363426 268.19091416 356.1875 299.0625 C356.38641846 300.185354 356.58533691 301.30820801 356.7902832 302.46508789 C359.99878517 321.60185443 360.81286816 340.49395635 360.75 359.875 C360.74784485 361.07037384 360.7456897 362.26574768 360.74346924 363.49734497 C360.69389288 380.62253934 360.37832404 397.40210122 357.4375 414.3125 C357.23882324 415.51132812 357.04014648 416.71015625 356.83544922 417.9453125 C350.10367006 457.88215965 337.21974538 495.47892205 318.4375 531.3125 C318.11910156 531.92416016 317.80070313 532.53582031 317.47265625 533.16601562 C307.96653957 551.2429082 296.29735819 568.45881239 283.4375 584.3125 C282.35662109 585.67955078 282.35662109 585.67955078 281.25390625 587.07421875 C276.20070662 593.38846642 270.81333404 599.3321977 265.29296875 605.234375 C262.86436403 607.83536335 260.51669557 610.49679863 258.1875 613.1875 C255.13607355 616.6495739 251.88127407 619.66475679 248.359375 622.640625 C246.51289056 624.24691634 244.82216977 625.92567614 243.125 627.6875 C239.07895125 631.77870555 234.67378936 635.36289364 230.16894531 638.93603516 C228.94334114 639.91036628 227.72171777 640.88971459 226.50292969 641.87255859 C204.6600094 659.47138815 180.79409323 674.31171459 155.4375 686.3125 C154.70015625 686.66521973 153.9628125 687.01793945 153.203125 687.38134766 C121.75117383 702.33553669 88.69970906 711.55895753 54.4375 717.3125 C52.88409912 717.58368652 52.88409912 717.58368652 51.29931641 717.86035156 C17.88334428 723.45098319 -20.20519331 723.11354412 -53.5625 717.3125 C-54.76132812 717.11382324 -55.96015625 716.91514648 -57.1953125 716.71044922 C-91.0635728 711.00159474 -123.55068755 701.08143912 -154.5625 686.3125 C-155.44405762 685.89629395 -156.32561523 685.48008789 -157.23388672 685.05126953 C-190.98780452 669.01619719 -223.60814231 647.03703673 -249.74609375 620.12890625 C-251.61928014 618.18358115 -251.61928014 618.18358115 -254.1875 616.25 C-257.07613042 613.89348571 -259.33540704 611.2059021 -261.75 608.375 C-263.40931749 606.48681113 -265.12791186 604.74256635 -266.9375 603 C-271.02870555 598.95395125 -274.61289364 594.54878936 -278.18603516 590.04394531 C-279.16036628 588.81834114 -280.13971459 587.59671777 -281.12255859 586.37792969 C-298.72138815 564.5350094 -313.56171459 540.66909323 -325.5625 515.3125 C-325.91521973 514.57515625 -326.26793945 513.8378125 -326.63134766 513.078125 C-341.58553669 481.62617383 -350.80895753 448.57470906 -356.5625 414.3125 C-356.74329102 413.27689941 -356.92408203 412.24129883 -357.11035156 411.17431641 C-362.69902153 377.77006939 -362.38359694 339.65669791 -356.5625 306.3125 C-356.35850586 305.09771973 -356.15451172 303.88293945 -355.94433594 302.63134766 C-349.25354729 263.49461667 -337.06526068 226.46774528 -318.5625 191.3125 C-317.98193848 190.19125732 -317.98193848 190.19125732 -317.38964844 189.04736328 C-307.62726768 170.2714862 -295.81365995 152.80181168 -282.5625 136.3125 C-281.82902344 135.38695312 -281.09554687 134.46140625 -280.33984375 133.5078125 C-275.53883609 127.52983823 -270.47885 121.84635571 -265.26171875 116.234375 C-262.75762409 113.52371971 -260.31323155 110.7697639 -257.875 108 C-254.60638164 104.35266471 -251.19105656 101.10294846 -247.44921875 97.94921875 C-245.6130395 96.35634275 -243.93580967 94.68737844 -242.25 92.9375 C-238.20004584 88.84234546 -233.79018369 85.25642293 -229.28076172 81.68017578 C-228.07495478 80.72039595 -226.87384718 79.75469657 -225.67626953 78.78466797 C-207.88847364 64.38297224 -188.83752977 51.92747158 -168.5625 41.3125 C-167.91861328 40.97202637 -167.27472656 40.63155273 -166.61132812 40.28076172 C-161.98034895 37.84558715 -157.29603228 35.54138123 -152.5625 33.3125 C-151.75312988 32.93125977 -150.94375977 32.55001953 -150.10986328 32.15722656 C-121.65361013 18.92349594 -91.68408584 10.01636574 -60.8125 4.5625 C-59.689646 4.36358154 -58.56679199 4.16466309 -57.40991211 3.9597168 C-38.27314557 0.75121483 -19.38104365 -0.06286816 0 0 Z M-167.5625 186.3125 C-167.5625 301.1525 -167.5625 415.9925 -167.5625 534.3125 C-145.4525 534.3125 -123.3425 534.3125 -100.5625 534.3125 C-100.54043976 498.84641556 -100.52198127 463.38033761 -100.51143467 427.91424827 C-100.51018402 423.72375665 -100.50888969 419.53326504 -100.50756836 415.34277344 C-100.50730605 414.50854903 -100.50704374 413.67432462 -100.50677348 412.81482068 C-100.50242641 399.32081795 -100.49454415 385.8268195 -100.4853472 372.33281931 C-100.47598389 358.4788096 -100.47043872 344.62480213 -100.46841151 330.77078938 C-100.46704184 322.22744571 -100.46272141 313.68411412 -100.45458353 305.14077416 C-100.44928303 299.2761731 -100.44770321 293.41157826 -100.44899862 287.54697499 C-100.44963685 284.16733071 -100.44813014 280.78772443 -100.44329453 277.40808105 C-100.43829632 273.73384976 -100.43952424 270.05966957 -100.44224548 266.38543701 C-100.43933264 265.33092559 -100.4364198 264.27641416 -100.43341869 263.18994784 C-100.44737246 256.1869981 -100.88309524 249.28180566 -101.5625 242.3125 C-100.9025 242.3125 -100.2425 242.3125 -99.5625 242.3125 C-99.39182259 244.1822625 -99.39182259 244.1822625 -99.21769714 246.08979797 C-98.58063582 251.78352412 -97.35332566 257.29533316 -96.0793457 262.87573242 C-95.8244273 264.0104728 -95.5695089 265.14521318 -95.30686569 266.31433964 C-94.60359824 269.44048731 -93.89600064 272.56561741 -93.18657231 275.69037151 C-92.42145867 279.06560416 -91.66216095 282.44214522 -90.90220642 285.81854248 C-89.58738421 291.6567265 -88.26918056 297.49413819 -86.9486084 303.33102417 C-84.86251115 312.55176062 -82.7826336 321.77389352 -80.70410156 330.99633789 C-80.35014296 332.56676484 -79.99618292 334.13719146 -79.64222145 335.70761776 C-79.10639484 338.08492986 -78.57057466 340.4622434 -78.03478587 342.83956403 C-76.94503394 347.67463781 -75.85471156 352.50958256 -74.7639724 357.34443372 C-69.63772741 380.06789623 -64.5380816 402.79719042 -59.46050429 425.53157592 C-58.76302517 428.65428339 -58.0653161 431.77693946 -57.36760968 434.89959615 C-54.36183296 448.35248759 -51.35719207 461.80563062 -48.35739833 475.25985754 C-47.11763514 480.81956053 -45.87600984 486.37884575 -44.63300484 491.93782485 C-43.91787941 495.13638067 -43.20394782 498.335195 -42.49180412 501.5344162 C-41.71857419 505.00776933 -40.94217385 508.48039965 -40.16503906 511.95288086 C-39.9439362 512.94983569 -39.72283335 513.94679052 -39.4950304 514.97395611 C-38.03172944 521.49188735 -36.32428435 527.85262404 -34.5625 534.3125 C-11.4625 534.3125 11.6375 534.3125 35.4375 534.3125 C50.28676407 468.82878084 65.12102994 403.34173642 79.89574432 337.84115219 C80.70846132 334.23818632 81.52132087 330.63525263 82.33422655 327.03232932 C84.03826978 319.47973668 85.74178288 311.9270247 87.44470787 304.37417984 C88.00639865 301.88316108 88.56821166 299.39216987 89.13016701 296.90121078 C90.64782536 290.17340291 92.16146538 283.44471081 93.67158127 276.71520615 C94.49364763 273.06305595 95.32251124 269.41247927 96.15139771 265.76187134 C96.70794332 263.29481539 97.26433423 260.82772454 97.82055664 258.3605957 C98.21443526 256.63644707 98.21443526 256.63644707 98.61627102 254.87746716 C98.85525647 253.81308076 99.09424192 252.74869436 99.34046936 251.65205383 C99.55282762 250.71516377 99.76518587 249.77827372 99.98397923 248.81299305 C100.55647398 246.0800834 100.55647398 246.0800834 100.4375 242.3125 C101.0975 242.3125 101.7575 242.3125 102.4375 242.3125 C102.33131146 243.2949284 102.33131146 243.2949284 102.2229777 244.29720384 C101.51717116 251.32038761 101.29788222 258.24799716 101.31724548 265.30314636 C101.31639106 266.46002325 101.31553663 267.61690014 101.31465632 268.8088339 C101.31301846 272.65797243 101.31849499 276.5070667 101.32397461 280.35620117 C101.32481498 283.12626167 101.32414194 285.89632133 101.3235321 288.66638184 C101.32300954 294.61612081 101.32612833 300.56584875 101.33176994 306.51558495 C101.33992128 315.11774384 101.34250388 323.71989745 101.34375793 332.32205979 C101.34594276 346.28087165 101.35258737 360.23967765 101.36206055 374.19848633 C101.37124942 387.75252249 101.37832303 401.30655705 101.38256836 414.8605957 C101.38283108 415.6970515 101.38309381 416.5335073 101.38336449 417.39531025 C101.3846696 421.59185728 101.38593329 425.78840432 101.38717639 429.98495138 C101.39753126 464.76080613 101.41595999 499.53665002 101.4375 534.3125 C123.5475 534.3125 145.6575 534.3125 168.4375 534.3125 C168.4375 419.4725 168.4375 304.6325 168.4375 186.3125 C134.1175 186.3125 99.7975 186.3125 64.4375 186.3125 C56.43272192 220.71796417 56.43272192 220.71796417 48.46875 255.1328125 C47.94829009 257.38779714 47.42780683 259.64277639 46.90730286 261.89775085 C45.53340048 267.8504455 44.16000845 273.80325776 42.7867775 279.75610733 C41.92562125 283.48899123 41.06431605 287.22184073 40.20297241 290.9546814 C27.25525207 347.06799489 14.342219 403.18928268 1.4375 459.3125 C-5.38421655 431.65191422 -11.87400728 403.91966881 -18.27592468 376.15927124 C-19.61999562 370.33363411 -20.96684855 364.50864023 -22.31347656 358.68359375 C-24.57407417 348.9037502 -26.83349511 339.12363567 -29.09179688 329.34326172 C-34.00431228 308.06798048 -38.91785027 286.79293659 -43.83734131 265.51926708 C-45.46668411 258.47293933 -47.09429296 251.4262142 -48.72047806 244.37915707 C-49.73539493 239.98265329 -50.75181236 235.58649736 -51.76860809 231.19042778 C-52.2346767 229.17403907 -52.70014635 227.15751179 -53.16492462 225.14082527 C-53.80715877 222.35455905 -54.45168426 219.56883125 -55.09667969 216.78320312 C-55.27325356 216.01465217 -55.44982742 215.24610121 -55.63175201 214.45426083 C-57.81699674 205.04054506 -60.21760378 195.69208488 -62.5625 186.3125 C-97.2125 186.3125 -131.8625 186.3125 -167.5625 186.3125 Z " fill="#1D88E5" transform="translate(383.5625,23.6875)"/>
</svg>
